<svg xmlns="http://www.w3.org/2000/svg" viewBox="0 0 512 512" width="512" height="512" role="img">
<defs><radialGradient id="bg" cx="50%" cy="42%" r="75%"><stop offset="0" stop-color="#161a22"/><stop offset="1" stop-color="#0c0e12"/></radialGradient><linearGradient id="g" gradientUnits="userSpaceOnUse" x1="0" y1="70" x2="0" y2="450"><stop offset="0" stop-color="#e0c184"/><stop offset="0.5" stop-color="#b08a4a"/><stop offset="1" stop-color="#7c5e2f"/></linearGradient></defs>
<rect width="512" height="512" fill="url(#bg)"/>
<circle cx="256" cy="256" r="184" fill="none" stroke="url(#g)" stroke-width="3" opacity="0.6"/><clipPath id="cpL"><circle cx="256" cy="256" r="182"/></clipPath><g clip-path="url(#cpL)"><line x1="156" y1="150" x2="256" y2="150" stroke="url(#g)" stroke-width="2.5" opacity="0.35"/><line x1="156" y1="168" x2="256" y2="168" stroke="url(#g)" stroke-width="2.5" opacity="0.38999999999999996"/><line x1="156" y1="186" x2="256" y2="186" stroke="url(#g)" stroke-width="2.5" opacity="0.43"/><line x1="156" y1="204" x2="256" y2="204" stroke="url(#g)" stroke-width="2.5" opacity="0.47"/><line x1="156" y1="222" x2="256" y2="222" stroke="url(#g)" stroke-width="2.5" opacity="0.51"/><line x1="156" y1="240" x2="256" y2="240" stroke="url(#g)" stroke-width="2.5" opacity="0.55"/><line x1="156" y1="258" x2="256" y2="258" stroke="url(#g)" stroke-width="2.5" opacity="0.59"/><line x1="156" y1="276" x2="256" y2="276" stroke="url(#g)" stroke-width="2.5" opacity="0.63"/><line x1="156" y1="294" x2="256" y2="294" stroke="url(#g)" stroke-width="2.5" opacity="0.6699999999999999"/><line x1="156" y1="312" x2="256" y2="312" stroke="url(#g)" stroke-width="2.5" opacity="0.71"/><line x1="156" y1="330" x2="256" y2="330" stroke="url(#g)" stroke-width="2.5" opacity="0.75"/><line x1="156" y1="348" x2="256" y2="348" stroke="url(#g)" stroke-width="2.5" opacity="0.79"/><line x1="156" y1="366" x2="256" y2="366" stroke="url(#g)" stroke-width="2.5" opacity="0.83"/><path d="M256 122 C322 122 356 184 356 256 C356 344 312 392 256 392 Z" fill="#b07a4e"/><path d="M256 122 C322 122 356 184 356 256 Z" fill="#cf9d6e" opacity="0.5"/><circle cx="300" cy="244" r="9" fill="#0e1117"/><path d="M296 322 Q320 332 332 318" fill="none" stroke="#0e1117" stroke-width="5" stroke-linecap="round"/><line x1="256" y1="100" x2="256" y2="412" stroke="url(#g)" stroke-width="3"/></g>
</svg>
