<svg xmlns="http://www.w3.org/2000/svg" viewBox="0 0 512 512" width="512" height="512" role="img">
<defs><radialGradient id="bg" cx="50%" cy="42%" r="75%"><stop offset="0" stop-color="#161a22"/><stop offset="1" stop-color="#0c0e12"/></radialGradient><linearGradient id="g" gradientUnits="userSpaceOnUse" x1="0" y1="70" x2="0" y2="450"><stop offset="0" stop-color="#e0c184"/><stop offset="0.5" stop-color="#b08a4a"/><stop offset="1" stop-color="#7c5e2f"/></linearGradient></defs>
<rect width="512" height="512" fill="url(#bg)"/>
<circle cx="263.0" cy="256.0" r="2.2" fill="url(#g)" opacity="0.9"/><circle cx="262.9" cy="258.3" r="2.2" fill="url(#g)" opacity="0.9"/><circle cx="262.1" cy="260.6" r="2.2" fill="url(#g)" opacity="0.9"/><circle cx="260.6" cy="262.5" r="2.2" fill="url(#g)" opacity="0.9"/><circle cx="258.4" cy="264.0" r="2.2" fill="url(#g)" opacity="0.9"/><circle cx="255.7" cy="264.7" r="2.3" fill="url(#g)" opacity="0.9"/><circle cx="252.9" cy="264.5" r="2.3" fill="url(#g)" opacity="0.9"/><circle cx="250.1" cy="263.4" r="2.3" fill="url(#g)" opacity="0.9"/><circle cx="247.7" cy="261.4" r="2.3" fill="url(#g)" opacity="0.9"/><circle cx="246.0" cy="258.7" r="2.3" fill="url(#g)" opacity="0.9"/><circle cx="245.2" cy="255.4" r="2.3" fill="url(#g)" opacity="0.9"/><circle cx="245.5" cy="251.8" r="2.3" fill="url(#g)" opacity="0.9"/><circle cx="247.0" cy="248.4" r="2.4" fill="url(#g)" opacity="0.9"/><circle cx="249.6" cy="245.6" r="2.4" fill="url(#g)" opacity="0.9"/><circle cx="253.0" cy="243.5" r="2.4" fill="url(#g)" opacity="0.9"/><circle cx="257.2" cy="242.7" r="2.4" fill="url(#g)" opacity="0.9"/><circle cx="261.5" cy="243.2" r="2.4" fill="url(#g)" opacity="0.9"/><circle cx="265.7" cy="245.1" r="2.4" fill="url(#g)" opacity="0.9"/><circle cx="269.2" cy="248.4" r="2.5" fill="url(#g)" opacity="0.9"/><circle cx="271.6" cy="252.8" r="2.5" fill="url(#g)" opacity="0.9"/><circle cx="272.5" cy="257.9" r="2.5" fill="url(#g)" opacity="0.9"/><circle cx="271.7" cy="263.3" r="2.5" fill="url(#g)" opacity="0.9"/><circle cx="269.2" cy="268.4" r="2.5" fill="url(#g)" opacity="0.9"/><circle cx="265.0" cy="272.6" r="2.6" fill="url(#g)" opacity="0.9"/><circle cx="259.4" cy="275.4" r="2.6" fill="url(#g)" opacity="0.9"/><circle cx="253.0" cy="276.4" r="2.6" fill="url(#g)" opacity="0.9"/><circle cx="246.3" cy="275.2" r="2.6" fill="url(#g)" opacity="0.9"/><circle cx="240.1" cy="271.9" r="2.7" fill="url(#g)" opacity="0.9"/><circle cx="235.0" cy="266.5" r="2.7" fill="url(#g)" opacity="0.9"/><circle cx="231.8" cy="259.5" r="2.7" fill="url(#g)" opacity="0.9"/><circle cx="230.8" cy="251.5" r="2.8" fill="url(#g)" opacity="0.9"/><circle cx="232.5" cy="243.3" r="2.8" fill="url(#g)" opacity="0.9"/><circle cx="236.9" cy="235.7" r="2.8" fill="url(#g)" opacity="0.9"/><circle cx="243.7" cy="229.6" r="2.9" fill="url(#g)" opacity="0.9"/><circle cx="252.5" cy="225.8" r="2.9" fill="url(#g)" opacity="0.9"/><circle cx="262.4" cy="224.9" r="3.0" fill="url(#g)" opacity="0.9"/><circle cx="272.6" cy="227.3" r="3.0" fill="url(#g)" opacity="0.9"/><circle cx="281.9" cy="233.0" r="3.0" fill="url(#g)" opacity="0.9"/><circle cx="289.2" cy="241.7" r="3.1" fill="url(#g)" opacity="0.9"/><circle cx="293.6" cy="252.7" r="3.1" fill="url(#g)" opacity="0.9"/><circle cx="294.3" cy="265.1" r="3.2" fill="url(#g)" opacity="0.9"/><circle cx="291.0" cy="277.6" r="3.2" fill="url(#g)" opacity="0.9"/><circle cx="283.6" cy="288.9" r="3.3" fill="url(#g)" opacity="0.9"/><circle cx="272.5" cy="297.7" r="3.3" fill="url(#g)" opacity="0.9"/><circle cx="258.7" cy="302.8" r="3.4" fill="url(#g)" opacity="0.9"/><circle cx="243.3" cy="303.2" r="3.5" fill="url(#g)" opacity="0.9"/><circle cx="227.9" cy="298.6" r="3.5" fill="url(#g)" opacity="0.9"/><circle cx="214.1" cy="289.0" r="3.6" fill="url(#g)" opacity="0.9"/><circle cx="203.7" cy="275.0" r="3.7" fill="url(#g)" opacity="0.9"/><circle cx="197.9" cy="257.6" r="3.7" fill="url(#g)" opacity="0.9"/><circle cx="197.9" cy="238.5" r="3.8" fill="url(#g)" opacity="0.9"/><circle cx="204.1" cy="219.6" r="3.9" fill="url(#g)" opacity="0.9"/><circle cx="216.5" cy="202.9" r="4.0" fill="url(#g)" opacity="0.9"/><circle cx="234.3" cy="190.4" r="4.1" fill="url(#g)" opacity="0.9"/><circle cx="256.1" cy="183.9" r="4.2" fill="url(#g)" opacity="0.9"/><circle cx="279.8" cy="184.5" r="4.3" fill="url(#g)" opacity="0.9"/><circle cx="303.1" cy="193.0" r="4.4" fill="url(#g)" opacity="0.9"/><circle cx="323.3" cy="209.0" r="4.5" fill="url(#g)" opacity="0.9"/><circle cx="338.2" cy="231.5" r="4.6" fill="url(#g)" opacity="0.9"/><circle cx="345.5" cy="258.7" r="4.7" fill="url(#g)" opacity="0.9"/><circle cx="343.8" cy="288.1" r="4.8" fill="url(#g)" opacity="0.9"/><circle cx="332.5" cy="316.7" r="4.9" fill="url(#g)" opacity="0.9"/><circle cx="311.9" cy="341.2" r="5.1" fill="url(#g)" opacity="0.9"/><circle cx="283.4" cy="358.8" r="5.2" fill="url(#g)" opacity="0.9"/><circle cx="249.4" cy="366.9" r="5.3" fill="url(#g)" opacity="0.9"/><circle cx="213.0" cy="363.8" r="5.5" fill="url(#g)" opacity="0.9"/><circle cx="178.0" cy="348.7" r="5.6" fill="url(#g)" opacity="0.9"/><circle cx="148.2" cy="322.2" r="5.8" fill="url(#g)" opacity="0.9"/><circle cx="127.4" cy="286.3" r="6.0" fill="url(#g)" opacity="0.9"/><circle cx="118.6" cy="243.8" r="6.1" fill="url(#g)" opacity="0.9"/><circle cx="123.9" cy="198.7" r="6.3" fill="url(#g)" opacity="0.9"/><circle cx="143.8" cy="155.9" r="6.5" fill="url(#g)" opacity="0.9"/><circle cx="177.7" cy="119.9" r="6.7" fill="url(#g)" opacity="0.9"/><circle cx="223.1" cy="95.4" r="6.9" fill="url(#g)" opacity="0.9"/><circle cx="276.2" cy="86.0" r="7.1" fill="url(#g)" opacity="0.9"/><circle cx="331.8" cy="94.1" r="7.4" fill="url(#g)" opacity="0.9"/><circle cx="384.3" cy="120.5" r="7.6" fill="url(#g)" opacity="0.9"/><circle cx="427.7" cy="163.8" r="7.8" fill="url(#g)" opacity="0.9"/>
</svg>
